<svg xmlns="http://www.w3.org/2000/svg" viewBox="0 0 32 32">
  <rect width="32" height="32" rx="8" fill="#0f172a"/>
  <path d="M11 17.5V9.5a1.5 1.5 0 0 1 3 0v6" stroke="#6366f1" stroke-width="2" stroke-linecap="round" fill="none"/>
  <path d="M14 15.5V7.5a1.5 1.5 0 0 1 3 0v8" stroke="#6366f1" stroke-width="2" stroke-linecap="round" fill="none"/>
  <path d="M17 15.5V8.5a1.5 1.5 0 0 1 3 0v7" stroke="#6366f1" stroke-width="2" stroke-linecap="round" fill="none"/>
  <path d="M20 16v-4a1.5 1.5 0 0 1 3 0v6.5c0 3.5-2 6-6 6h-1.5c-2 0-3-.5-4.5-2.5L8.3 18a1.4 1.4 0 0 1 2-2l1.7 1.8" stroke="#6366f1" stroke-width="2" stroke-linecap="round" stroke-linejoin="round" fill="none"/>
</svg>
